<svg xmlns="http://www.w3.org/2000/svg" viewBox="0 0 93.96 93.74"><defs><style>.cls-1{font-size:15.16px;font-family:Graphit-Bold, Graphit;font-weight:700;}.cls-1,.cls-6,.cls-7{fill:#fff;}.cls-2{letter-spacing:-0.01em;}.cls-3{letter-spacing:-0.02em;}.cls-4{letter-spacing:0em;}.cls-5{letter-spacing:0em;}.cls-6{fill-rule:evenodd;}</style></defs><g id="Camada_2" data-name="Camada 2"><g id="Layer_1" data-name="Layer 1"><text class="cls-1" transform="translate(0 90.39)"><tspan class="cls-2">E</tspan><tspan x="8.85" y="0">a</tspan><tspan class="cls-3" x="18.28" y="0">s</tspan><tspan x="25.18" y="0">yChur</tspan><tspan class="cls-4" x="70.17" y="0">r</tspan><tspan class="cls-5" x="77.27" y="0">as</tspan></text><path class="cls-6" d="M47,0A30.63,30.63,0,0,1,72,12.79l2.76-1.36L73.61,21.65l-8.82-5.29L67.58,15C63.7,10.17,58.34,5.05,47,5A25.83,25.83,0,0,0,21.15,30.88c0,14.28,11.57,27.19,25.85,27.19,13.9,0,25.23-12.3,25.82-26.06h5.06C77.49,50,58.1,63.14,47,75.61,28.07,56.68,16.06,46,16.08,30.93,16.1,12.68,29.92,0,47,0Z"/><path class="cls-7" d="M54.13,52.22a1.24,1.24,0,0,1-.27,0l1,4.46a22.67,22.67,0,0,0,2.74-1.15l-.83-3.87-2.52.51Z"/><path class="cls-7" d="M40.1,52.25a1.24,1.24,0,0,1-.27,0l-.08,0-2.52-.51-.83,3.88a24.39,24.39,0,0,0,2.74,1.15Z"/><path class="cls-7" d="M39.83,52.22a1.24,1.24,0,0,0,.27,0A1.51,1.51,0,0,0,41.62,51a1.82,1.82,0,0,0,0-.52A15.65,15.65,0,0,1,36,49.23a1.48,1.48,0,0,0-.27.6,1.53,1.53,0,0,0,.81,1.66,2.32,2.32,0,0,0,.37.13l.37.07,2.52.51Z"/><path class="cls-7" d="M52.34,51a1.51,1.51,0,0,0,1.52,1.21,1.24,1.24,0,0,0,.27,0l.08,0,2.52-.51.37-.07a2.32,2.32,0,0,0,.37-.13,1.53,1.53,0,0,0,.81-1.66,1.48,1.48,0,0,0-.27-.6,15.65,15.65,0,0,1-5.68,1.29A1.82,1.82,0,0,0,52.34,51Z"/><path class="cls-7" d="M42,50.55q5,.11,10,0l.34,0A15.65,15.65,0,0,0,58,49.23a14.3,14.3,0,0,0,3.21-1.92,13.31,13.31,0,0,0,5.44-10.19l.5,0a1.15,1.15,0,1,0-.2-2.29,224.09,224.09,0,0,1-40,0,1.15,1.15,0,1,0-.2,2.29l.5,0a13.28,13.28,0,0,0,5.44,10.19A14.3,14.3,0,0,0,36,49.23a15.65,15.65,0,0,0,5.68,1.29Z"/><path class="cls-7" d="M40,15.94a2.58,2.58,0,0,1,2.63-2.46q4.38.11,8.76,0A2.58,2.58,0,0,1,54,15.94l.09,2.68c.6.16,1.19.34,1.76.54,0-1.1-.09-2.19-.14-3.29a4.29,4.29,0,0,0-4.37-4.07q-4.35.1-8.7,0a4.31,4.31,0,0,0-4.38,4.07c0,1.1-.09,2.19-.13,3.29.57-.2,1.16-.38,1.76-.54Z"/><path class="cls-7" d="M26.65,31.81a228.17,228.17,0,0,0,40.66,0,1.13,1.13,0,0,0,1.07-1.17h0a1.13,1.13,0,0,0-1.26-.95l-.52,0c-1-4.8-5.17-8.6-10.76-10.57-.57-.2-1.16-.38-1.76-.54a27.28,27.28,0,0,0-14.2,0c-.6.16-1.19.34-1.76.54-5.6,2-9.78,5.77-10.76,10.57l-.52,0a1.13,1.13,0,0,0-1.26.95h0A1.13,1.13,0,0,0,26.65,31.81Z"/></g></g></svg>